<?xml version="1.0" encoding="UTF-8"?>
<!-- Generated by Pixelmator Pro 3.7.1 -->
<svg width="1024" height="1024" viewBox="0 0 1024 1024" xmlns="http://www.w3.org/2000/svg">
    <linearGradient id="linearGradient1" x1="149.961328" y1="149.961328" x2="874.038672" y2="874.038672" gradientUnits="userSpaceOnUse">
        <stop offset="0" stop-color="#63a1f1" stop-opacity="1"/>
        <stop offset="1" stop-color="#4469dc" stop-opacity="1"/>
    </linearGradient>
    <path id="Rounded-Rectangle" fill="url(#linearGradient1)" fill-rule="evenodd" stroke="none" d="M 0 1024 L 1024 1024 L 1024 0 L 0 0 Z"/>
    <g id="Group">
        <path id="phone-svgrepo-com-2" fill="#ffffff" fill-rule="evenodd" stroke="none" d="M 554.733215 68.801453 C 488.427673 40.151611 413.261749 79.453064 394.31601 148.463684 L 370.877625 233.836548 C 355.461548 289.989197 382.171539 349.492065 435.794983 372.662415 L 448.801483 378.281677 C 449.675171 379.307617 452.131927 382.646057 453.818054 390.164124 C 457.618408 407.093506 457.604248 446.180481 423.541931 523.795288 C 389.491486 601.382935 360.64151 628.100708 345.434509 636.947571 C 338.54248 640.955566 334.29245 641.415283 332.94278 641.466797 L 310.719727 631.86377 C 263.050049 611.266968 207.883301 625.60614 174.524979 665.359314 L 115.710014 735.446533 C 65.348328 795.459229 83.403572 888.896912 156.410645 920.440002 L 233.78299 953.874268 C 258.161896 964.406372 287.444611 969.668701 317.263702 961.03894 C 390.695251 939.788086 552.550537 866.406372 658.233093 625.595215 C 756.90155 400.771484 732.743042 248.051025 709.454529 177.282104 L 679.479431 187.146484 L 709.454529 177.282104 C 697.678528 141.49762 669.492371 118.388367 640.225769 105.742371 L 554.733215 68.801453 Z M 455.177155 165.172119 C 464.593903 130.872009 500.739807 114.224182 529.699341 126.737671 L 615.191895 163.678589 C 633.161926 171.44342 644.944763 183.155212 649.504395 197.010925 C 668.007568 253.23877 692.752441 389.888123 600.440063 600.231018 C 503.594482 820.901794 358.566803 883.384155 299.715973 900.415405 C 287.692932 903.895874 273.787598 902.406189 258.815033 895.937866 L 181.442673 862.503662 C 149.989441 848.916809 138.878433 806.017029 164.054169 776.014954 L 222.870667 705.931641 C 239.113174 686.577271 264.77243 680.763428 285.687714 689.800171 L 310.493622 700.521423 L 323.008911 671.55127 C 310.493622 700.521423 310.531769 700.538086 310.569946 700.554688 L 310.650299 700.586426 L 310.817871 700.656128 L 311.169403 700.802734 L 311.9505 701.110474 C 312.509491 701.324646 313.144958 701.549438 313.847504 701.784058 C 315.259125 702.246216 316.958008 702.72644 318.933075 703.161499 C 322.894928 704.026733 327.933014 704.685791 333.897583 704.57373 C 346.05484 704.354492 360.876038 700.976379 377.168945 691.499084 C 409.06311 672.94751 444.921722 632.125183 481.333374 549.160156 C 517.733154 466.222351 523.468567 412.291138 515.400574 376.342896 C 511.275085 357.961121 503.629272 344.81366 495.456207 335.772583 C 491.450867 331.341797 487.514862 328.113953 484.1651 325.819336 C 482.494415 324.675049 480.975555 323.766418 479.671173 323.055847 C 479.018799 322.700745 478.419281 322.394897 477.880585 322.133362 L 477.118439 321.773865 L 476.772644 321.617798 L 476.608948 321.545166 L 476.529297 321.510498 C 476.49057 321.493591 476.451416 321.476868 463.93277 350.44519 L 476.451416 321.476868 L 460.829407 314.72644 C 437.482513 304.639954 424.239258 277.862732 431.739319 250.545166 L 455.177155 165.172119 Z"/>
        <path id="tag-02-svgrepo-com" fill="#4d78e2" stroke="#ffffff" stroke-width="63.33202" stroke-linecap="round" stroke-linejoin="round" d="M 703.110962 339.598022 L 703.30249 339.668823 M 674.671692 214.05957 L 631.527222 235.047119 C 622.34613 239.513245 617.75531 241.74646 613.895142 244.905579 C 610.472656 247.706421 607.483521 251.034363 605.037476 254.767151 C 602.278503 258.977234 600.471558 263.866699 596.857727 273.64563 L 575.81012 330.599243 C 572.196228 340.378174 570.389221 345.267883 569.747131 350.260864 C 569.178467 354.685669 569.285034 359.157837 570.063232 363.512451 C 570.941467 368.421997 572.976318 373.104675 577.046814 382.468018 L 667.28717 590.052124 C 681.266907 622.21051 688.257874 638.292419 699.733459 647.588623 C 709.829773 655.768433 722.261414 660.362671 735.248779 660.713562 C 750.013733 661.114746 765.782715 653.443909 797.315369 638.104919 L 856.022339 609.547058 C 887.554993 594.208069 903.323975 586.537354 912.646484 574.418884 C 920.848022 563.76062 925.642578 550.786865 926.343872 537.354553 C 927.141602 522.088013 920.150574 506.006104 906.170898 473.847778 L 815.93158 266.263123 C 811.861267 256.899841 809.825195 252.217651 806.873413 248.316711 C 804.254761 244.857422 801.114624 241.860901 797.568909 239.4375 C 793.567688 236.703247 788.882324 234.971802 779.512085 231.508911 L 724.93866 211.340942 C 715.56842 207.878113 710.883301 206.146729 706.066101 205.622009 C 701.795044 205.156677 697.461121 205.391113 693.223389 206.316589 C 688.443604 207.360291 683.853088 209.593323 674.671692 214.05957 Z M 712.688477 343.137451 C 710.648499 348.657593 704.706665 351.547974 699.417175 349.593262 C 694.127686 347.638489 691.493469 341.578735 693.533447 336.058594 C 695.573486 330.538391 701.51532 327.64801 706.804749 329.602783 C 712.094238 331.557556 714.728516 337.617249 712.688477 343.137451 Z"/>
    </g>
</svg>


