<?xml version="1.0" encoding="UTF-8"?>
<!-- Generated by Pixelmator Pro 3.7 -->
<svg width="3500" height="3500" viewBox="0 0 3500 3500" xmlns="http://www.w3.org/2000/svg">
    <g id="Logo">
        <g id="Bottom-Left"/>
        <g id="Top-Left"/>
        <g id="Bottom-Right"/>
        <g id="Top-Right">
            <path id="Path" fill="#fff" fill-rule="evenodd" stroke="none" d="M 0 3140 C 0 3338.82251 161.17749 3500 360 3500 L 3140 3500 C 3338.82251 3500 3500 3338.82251 3500 3140 L 3500 360 C 3500 161.17749 3338.82251 0 3140 0 L 360 0 C 161.17749 0 0 161.17749 0 360 L 0 3140 Z M 1525.062256 3330 L 1370.349243 3330 L 1462.381104 2803.317139 L 845.86084 2803.317139 L 1038.977905 1702.769409 L 1295.73584 1702.769409 C 1297.80835 1702.769409 1299.88147 1702.741455 1301.954712 1702.713501 C 1306.100952 1702.657593 1310.247437 1702.601807 1314.38916 1702.769409 C 1327.9552 1703.318359 1341.513062 1704.39502 1354.987549 1706.061157 C 1370.443359 1707.972168 1385.855957 1710.426147 1401.072388 1713.741943 C 1414.769287 1716.726685 1428.310913 1720.46875 1441.670776 1724.714478 C 1452.808838 1728.25415 1463.858765 1732.152222 1474.588501 1736.784302 C 1486.602295 1741.970825 1498.197876 1748.102173 1509.700684 1754.340454 C 1520.508545 1760.20166 1531.163452 1766.369263 1541.521118 1772.993774 C 1550.154053 1778.515137 1558.631348 1784.307251 1566.758057 1790.549805 C 1576.636841 1798.138428 1586.244751 1806.120728 1595.286621 1814.689453 C 1608.057373 1826.791748 1621.389771 1840.624756 1632.593384 1854.190674 C 1644.939453 1869.140015 1655.310303 1883.787598 1665.511108 1900.275391 C 1674.204712 1914.327393 1682.674194 1929.18689 1689.650635 1944.165649 C 1696.991943 1959.92749 1703.014526 1975.881348 1708.304077 1992.444946 C 1713.674805 2009.263062 1716.606689 2024.251831 1720.373901 2044.015991 C 1724.136353 2063.755371 1727.88269 2100.415527 1728.054688 2114.240234 C 1728.246216 2129.633301 1726.874756 2158.950195 1724.762817 2181.172852 C 1722.030029 2209.929688 1717.240723 2234.452148 1712.693115 2262.369873 C 1683.255127 2443.089844 1616.134521 2803.317139 1616.134521 2803.317139 L 1525.062256 3330 Z M 1787.868896 2253.088867 C 1842.627197 1952.401489 2147.77832 1710.272461 2469.807373 1710.272461 C 2791.83667 1710.272461 3012.294189 1952.401489 2961.875244 2253.088867 C 2911.080811 2556.015625 2605.037598 2803.24707 2278.652588 2803.24707 L 1687.679688 2803.24707 L 1787.868896 2253.088867 Z M 530.948364 1646.809326 L 570.449585 1495.387939 L 1064.976685 1495.387939 L 1227.705933 684.515869 L 1843.658325 684.515869 L 1934.338745 171 L 2089.051758 171 L 1999.076904 684.515869 C 1999.076904 684.515869 1999.459717 685.399902 1931.046997 1069.652588 C 1928.538086 1083.744385 1920.697388 1129.0271 1913.490845 1169.50293 C 1911.664795 1179.76001 1905.395142 1208.7771 1898.129272 1229.852051 C 1891.863037 1248.027832 1885.235352 1269.015625 1877.281494 1286.909424 C 1870.983398 1301.077881 1864.375732 1313.351563 1858.628052 1324.216064 C 1849.638428 1341.209473 1842.61084 1353.6521 1841.072021 1356.036377 C 1826.520264 1378.585205 1811.508789 1400.506592 1797.181763 1418.580078 C 1770.574341 1452.145142 1745.917114 1476.115356 1728.054688 1492.096191 C 1711.386841 1507.008423 1693.690552 1521.015137 1676.483643 1533.791992 C 1657.900269 1547.59082 1635.082642 1561.843384 1615.037231 1573.293213 C 1597.218994 1583.470581 1578.003052 1593.758179 1559.077271 1601.821777 C 1540.151245 1609.885376 1521.515503 1616.82251 1498.728149 1623.766968 C 1453.527954 1637.541382 1419.945068 1647.165283 1344.015015 1646.809326 C 1217.579468 1646.216431 1034.588867 1646.809326 1034.588867 1646.809326 L 530.948364 1646.809326 Z M 2411.757813 1627.365967 C 2128.731445 1626.543579 1941.012573 1397.907959 1990.074829 1129.822754 L 2072.759766 678.018799 L 2539.511719 679.375 C 2797.29126 680.124023 2989.196289 877.981934 2967.15918 1132.661865 C 2943.956055 1400.822266 2694.784912 1628.188354 2411.757813 1627.365967 Z"/>
        </g>
    </g>
</svg>
