<svg height="700" viewBox="0 0 1200 700" width="1200" xmlns="http://www.w3.org/2000/svg"><g fill="#fff"><path d="m710 219h10.640015v10.640015h-10.640015z"/><path d="m710 229.640015h10.640015v10.639984h-10.640015z"/><path d="m710 240.279999h10.640015v10.640014h-10.640015z"/><path d="m710 250.920013h10.640015v10.639985h-10.640015z"/><path d="m710 261.559998h10.640015v10.640014h-10.640015z"/><path d="m710 272.200012h10.640015v10.639984h-10.640015z"/><path d="m710 282.839996h10.640015v10.640015h-10.640015z"/><path d="m710 304.119995h10.640015v10.640015h-10.640015z"/><path d="m710 325.399994h10.640015v10.640015h-10.640015z"/><path d="m710 410.519989h10.640015v10.640015h-10.640015z"/><path d="m710 421.160004h10.640015v10.639984h-10.640015z"/><path d="m710 431.799988h10.640015v10.640014h-10.640015z"/><path d="m710 442.440002h10.640015v10.640015h-10.640015z"/><path d="m710 453.080017h10.640015v10.639984h-10.640015z"/><path d="m710 463.720001h10.640015v10.639984h-10.640015z"/><path d="m710 474.359985h10.640015v10.640015h-10.640015z"/><path d="m720.640015 219h10.640014v10.640015h-10.640014z"/><path d="m720.640015 282.839996h10.640014v10.640015h-10.640014z"/><path d="m720.640015 304.119995h10.640014v10.640015h-10.640014z"/><path d="m720.640015 314.76001h10.640014v10.639984h-10.640014z"/><path d="m720.640015 325.399994h10.640014v10.640015h-10.640014z"/><path d="m720.640015 336.040009h10.640014v10.639984h-10.640014z"/><path d="m720.640015 357.320007h10.640014v10.639984h-10.640014z"/><path d="m720.640015 367.959991h10.640014v10.640015h-10.640014z"/><path d="m720.640015 378.600006h10.640014v10.639984h-10.640014z"/><path d="m720.640015 389.23999h10.640014v10.640015h-10.640014z"/><path d="m720.640015 410.519989h10.640014v10.640015h-10.640014z"/><path d="m720.640015 474.359985h10.640014v10.640015h-10.640014z"/><path d="m731.280029 219h10.639954v10.640015h-10.639954z"/><path d="m731.280029 240.279999h10.639954v10.640014h-10.639954z"/><path d="m731.280029 250.920013h10.639954v10.639985h-10.639954z"/><path d="m731.280029 261.559998h10.639954v10.640014h-10.639954z"/><path d="m731.280029 282.839996h10.639954v10.640015h-10.639954z"/><path d="m731.280029 304.119995h10.639954v10.640015h-10.639954z"/><path d="m731.280029 314.76001h10.639954v10.639984h-10.639954z"/><path d="m731.280029 336.040009h10.639954v10.639984h-10.639954z"/><path d="m731.280029 367.959991h10.639954v10.640015h-10.639954z"/><path d="m731.280029 378.600006h10.639954v10.639984h-10.639954z"/><path d="m731.280029 389.23999h10.639954v10.640015h-10.639954z"/><path d="m731.280029 410.519989h10.639954v10.640015h-10.639954z"/><path d="m731.280029 431.799988h10.639954v10.640014h-10.639954z"/><path d="m731.280029 442.440002h10.639954v10.640015h-10.639954z"/><path d="m731.280029 453.080017h10.639954v10.639984h-10.639954z"/><path d="m731.280029 474.359985h10.639954v10.640015h-10.639954z"/><path d="m741.919983 219h10.640015v10.640015h-10.640015z"/><path d="m741.919983 240.279999h10.640015v10.640014h-10.640015z"/><path d="m741.919983 250.920013h10.640015v10.639985h-10.640015z"/><path d="m741.919983 261.559998h10.640015v10.640014h-10.640015z"/><path d="m741.919983 282.839996h10.640015v10.640015h-10.640015z"/><path d="m741.919983 304.119995h10.640015v10.640015h-10.640015z"/><path d="m741.919983 325.399994h10.640015v10.640015h-10.640015z"/><path d="m741.919983 336.040009h10.640015v10.639984h-10.640015z"/><path d="m741.919983 346.679993h10.640015v10.640014h-10.640015z"/><path d="m741.919983 357.320007h10.640015v10.639984h-10.640015z"/><path d="m741.919983 367.959991h10.640015v10.640015h-10.640015z"/><path d="m741.919983 389.23999h10.640015v10.640015h-10.640015z"/><path d="m741.919983 410.519989h10.640015v10.640015h-10.640015z"/><path d="m741.919983 431.799988h10.640015v10.640014h-10.640015z"/><path d="m741.919983 442.440002h10.640015v10.640015h-10.640015z"/><path d="m741.919983 453.080017h10.640015v10.639984h-10.640015z"/><path d="m741.919983 474.359985h10.640015v10.640015h-10.640015z"/><path d="m752.559998 219h10.640014v10.640015h-10.640014z"/><path d="m752.559998 240.279999h10.640014v10.640014h-10.640014z"/><path d="m752.559998 250.920013h10.640014v10.639985h-10.640014z"/><path d="m752.559998 261.559998h10.640014v10.640014h-10.640014z"/><path d="m752.559998 282.839996h10.640014v10.640015h-10.640014z"/><path d="m752.559998 304.119995h10.640014v10.640015h-10.640014z"/><path d="m752.559998 314.76001h10.640014v10.639984h-10.640014z"/><path d="m752.559998 336.040009h10.640014v10.639984h-10.640014z"/><path d="m752.559998 378.600006h10.640014v10.639984h-10.640014z"/><path d="m752.559998 410.519989h10.640014v10.640015h-10.640014z"/><path d="m752.559998 431.799988h10.640014v10.640014h-10.640014z"/><path d="m752.559998 442.440002h10.640014v10.640015h-10.640014z"/><path d="m752.559998 453.080017h10.640014v10.639984h-10.640014z"/><path d="m752.559998 474.359985h10.640014v10.640015h-10.640014z"/><path d="m763.200012 219h10.640015v10.640015h-10.640015z"/><path d="m763.200012 282.839996h10.640015v10.640015h-10.640015z"/><path d="m763.200012 346.679993h10.640015v10.640014h-10.640015z"/><path d="m763.200012 410.519989h10.640015v10.640015h-10.640015z"/><path d="m763.200012 474.359985h10.640015v10.640015h-10.640015z"/><path d="m773.840027 219h10.639953v10.640015h-10.639953z"/><path d="m773.840027 229.640015h10.639953v10.639984h-10.639953z"/><path d="m773.840027 240.279999h10.639953v10.640014h-10.639953z"/><path d="m773.840027 250.920013h10.639953v10.639985h-10.639953z"/><path d="m773.840027 261.559998h10.639953v10.640014h-10.639953z"/><path d="m773.840027 272.200012h10.639953v10.639984h-10.639953z"/><path d="m773.840027 282.839996h10.639953v10.640015h-10.639953z"/><path d="m773.840027 304.119995h10.639953v10.640015h-10.639953z"/><path d="m773.840027 325.399994h10.639953v10.640015h-10.639953z"/><path d="m773.840027 346.679993h10.639953v10.640014h-10.639953z"/><path d="m773.840027 367.959991h10.639953v10.640015h-10.639953z"/><path d="m773.840027 389.23999h10.639953v10.640015h-10.639953z"/><path d="m773.840027 410.519989h10.639953v10.640015h-10.639953z"/><path d="m773.840027 421.160004h10.639953v10.639984h-10.639953z"/><path d="m773.840027 431.799988h10.639953v10.640014h-10.639953z"/><path d="m773.840027 442.440002h10.639953v10.640015h-10.639953z"/><path d="m773.840027 453.080017h10.639953v10.639984h-10.639953z"/><path d="m773.840027 463.720001h10.639953v10.639984h-10.639953z"/><path d="m773.840027 474.359985h10.639953v10.640015h-10.639953z"/><path d="m784.47998 304.119995h10.640015v10.640015h-10.640015z"/><path d="m784.47998 314.76001h10.640015v10.639984h-10.640015z"/><path d="m784.47998 325.399994h10.640015v10.640015h-10.640015z"/><path d="m784.47998 336.040009h10.640015v10.639984h-10.640015z"/><path d="m784.47998 346.679993h10.640015v10.640014h-10.640015z"/><path d="m784.47998 357.320007h10.640015v10.639984h-10.640015z"/><path d="m795.119995 229.640015h10.640015v10.639984h-10.640015z"/><path d="m795.119995 250.920013h10.640015v10.639985h-10.640015z"/><path d="m795.119995 272.200012h10.640015v10.639984h-10.640015z"/><path d="m795.119995 282.839996h10.640015v10.640015h-10.640015z"/><path d="m795.119995 304.119995h10.640015v10.640015h-10.640015z"/><path d="m795.119995 314.76001h10.640015v10.639984h-10.640015z"/><path d="m795.119995 336.040009h10.640015v10.639984h-10.640015z"/><path d="m795.119995 346.679993h10.640015v10.640014h-10.640015z"/><path d="m795.119995 367.959991h10.640015v10.640015h-10.640015z"/><path d="m795.119995 389.23999h10.640015v10.640015h-10.640015z"/><path d="m795.119995 399.880005h10.640015v10.639984h-10.640015z"/><path d="m795.119995 410.519989h10.640015v10.640015h-10.640015z"/><path d="m795.119995 431.799988h10.640015v10.640014h-10.640015z"/><path d="m795.119995 442.440002h10.640015v10.640015h-10.640015z"/><path d="m795.119995 453.080017h10.640015v10.639984h-10.640015z"/><path d="m795.119995 463.720001h10.640015v10.639984h-10.640015z"/><path d="m795.119995 474.359985h10.640015v10.640015h-10.640015z"/><path d="m805.76001 250.920013h10.640014v10.639985h-10.640014z"/><path d="m805.76001 261.559998h10.640014v10.640014h-10.640014z"/><path d="m805.76001 272.200012h10.640014v10.639984h-10.640014z"/><path d="m805.76001 293.480011h10.640014v10.639984h-10.640014z"/><path d="m805.76001 304.119995h10.640014v10.640015h-10.640014z"/><path d="m805.76001 346.679993h10.640014v10.640014h-10.640014z"/><path d="m805.76001 367.959991h10.640014v10.640015h-10.640014z"/><path d="m805.76001 389.23999h10.640014v10.640015h-10.640014z"/><path d="m805.76001 421.160004h10.640014v10.639984h-10.640014z"/><path d="m805.76001 431.799988h10.640014v10.640014h-10.640014z"/><path d="m805.76001 463.720001h10.640014v10.639984h-10.640014z"/><path d="m816.400024 219h10.639954v10.640015h-10.639954z"/><path d="m816.400024 229.640015h10.639954v10.639984h-10.639954z"/><path d="m816.400024 250.920013h10.639954v10.639985h-10.639954z"/><path d="m816.400024 282.839996h10.639954v10.640015h-10.639954z"/><path d="m816.400024 293.480011h10.639954v10.639984h-10.639954z"/><path d="m816.400024 314.76001h10.639954v10.639984h-10.639954z"/><path d="m816.400024 325.399994h10.639954v10.640015h-10.639954z"/><path d="m816.400024 346.679993h10.639954v10.640014h-10.639954z"/><path d="m816.400024 378.600006h10.639954v10.639984h-10.639954z"/><path d="m816.400024 442.440002h10.639954v10.640015h-10.639954z"/><path d="m816.400024 453.080017h10.639954v10.639984h-10.639954z"/><path d="m816.400024 463.720001h10.639954v10.639984h-10.639954z"/><path d="m827.039978 272.200012h10.640015v10.639984h-10.640015z"/><path d="m827.039978 293.480011h10.640015v10.639984h-10.640015z"/><path d="m827.039978 304.119995h10.640015v10.640015h-10.640015z"/><path d="m827.039978 367.959991h10.640015v10.640015h-10.640015z"/><path d="m827.039978 378.600006h10.640015v10.639984h-10.640015z"/><path d="m827.039978 389.23999h10.640015v10.640015h-10.640015z"/><path d="m827.039978 442.440002h10.640015v10.640015h-10.640015z"/><path d="m837.679993 219h10.640014v10.640015h-10.640014z"/><path d="m837.679993 240.279999h10.640014v10.640014h-10.640014z"/><path d="m837.679993 250.920013h10.640014v10.639985h-10.640014z"/><path d="m837.679993 272.200012h10.640014v10.639984h-10.640014z"/><path d="m837.679993 282.839996h10.640014v10.640015h-10.640014z"/><path d="m837.679993 314.76001h10.640014v10.639984h-10.640014z"/><path d="m837.679993 336.040009h10.640014v10.639984h-10.640014z"/><path d="m837.679993 346.679993h10.640014v10.640014h-10.640014z"/><path d="m837.679993 367.959991h10.640014v10.640015h-10.640014z"/><path d="m837.679993 389.23999h10.640014v10.640015h-10.640014z"/><path d="m837.679993 399.880005h10.640014v10.639984h-10.640014z"/><path d="m837.679993 410.519989h10.640014v10.640015h-10.640014z"/><path d="m837.679993 474.359985h10.640014v10.640015h-10.640014z"/><path d="m848.320007 219h10.640015v10.640015h-10.640015z"/><path d="m848.320007 229.640015h10.640015v10.639984h-10.640015z"/><path d="m848.320007 250.920013h10.640015v10.639985h-10.640015z"/><path d="m848.320007 261.559998h10.640015v10.640014h-10.640015z"/><path d="m848.320007 304.119995h10.640015v10.640015h-10.640015z"/><path d="m848.320007 346.679993h10.640015v10.640014h-10.640015z"/><path d="m848.320007 367.959991h10.640015v10.640015h-10.640015z"/><path d="m848.320007 389.23999h10.640015v10.640015h-10.640015z"/><path d="m848.320007 399.880005h10.640015v10.639984h-10.640015z"/><path d="m848.320007 410.519989h10.640015v10.640015h-10.640015z"/><path d="m848.320007 431.799988h10.640015v10.640014h-10.640015z"/><path d="m848.320007 442.440002h10.640015v10.640015h-10.640015z"/><path d="m848.320007 453.080017h10.640015v10.639984h-10.640015z"/><path d="m848.320007 474.359985h10.640015v10.640015h-10.640015z"/><path d="m858.960022 229.640015h10.639954v10.639984h-10.639954z"/><path d="m858.960022 240.279999h10.639954v10.640014h-10.639954z"/><path d="m858.960022 250.920013h10.639954v10.639985h-10.639954z"/><path d="m858.960022 272.200012h10.639954v10.639984h-10.639954z"/><path d="m858.960022 282.839996h10.639954v10.640015h-10.639954z"/><path d="m858.960022 293.480011h10.639954v10.639984h-10.639954z"/><path d="m858.960022 304.119995h10.639954v10.640015h-10.639954z"/><path d="m858.960022 336.040009h10.639954v10.639984h-10.639954z"/><path d="m858.960022 346.679993h10.639954v10.640014h-10.639954z"/><path d="m858.960022 357.320007h10.639954v10.639984h-10.639954z"/><path d="m858.960022 378.600006h10.639954v10.639984h-10.639954z"/><path d="m858.960022 410.519989h10.639954v10.640015h-10.639954z"/><path d="m858.960022 431.799988h10.639954v10.640014h-10.639954z"/><path d="m858.960022 453.080017h10.639954v10.639984h-10.639954z"/><path d="m858.960022 474.359985h10.639954v10.640015h-10.639954z"/><path d="m869.599976 229.640015h10.640014v10.639984h-10.640014z"/><path d="m869.599976 240.279999h10.640014v10.640014h-10.640014z"/><path d="m869.599976 272.200012h10.640014v10.639984h-10.640014z"/><path d="m869.599976 293.480011h10.640014v10.639984h-10.640014z"/><path d="m869.599976 304.119995h10.640014v10.640015h-10.640014z"/><path d="m869.599976 325.399994h10.640014v10.640015h-10.640014z"/><path d="m869.599976 367.959991h10.640014v10.640015h-10.640014z"/><path d="m869.599976 399.880005h10.640014v10.639984h-10.640014z"/><path d="m869.599976 431.799988h10.640014v10.640014h-10.640014z"/><path d="m869.599976 442.440002h10.640014v10.640015h-10.640014z"/><path d="m869.599976 463.720001h10.640014v10.639984h-10.640014z"/><path d="m880.23999 219h10.640015v10.640015h-10.640015z"/><path d="m880.23999 261.559998h10.640015v10.640014h-10.640015z"/><path d="m880.23999 282.839996h10.640015v10.640015h-10.640015z"/><path d="m880.23999 293.480011h10.640015v10.639984h-10.640015z"/><path d="m880.23999 304.119995h10.640015v10.640015h-10.640015z"/><path d="m880.23999 314.76001h10.640015v10.639984h-10.640015z"/><path d="m880.23999 336.040009h10.640015v10.639984h-10.640015z"/><path d="m880.23999 357.320007h10.640015v10.639984h-10.640015z"/><path d="m880.23999 367.959991h10.640015v10.640015h-10.640015z"/><path d="m880.23999 378.600006h10.640015v10.639984h-10.640015z"/><path d="m880.23999 389.23999h10.640015v10.640015h-10.640015z"/><path d="m880.23999 399.880005h10.640015v10.639984h-10.640015z"/><path d="m880.23999 410.519989h10.640015v10.640015h-10.640015z"/><path d="m880.23999 421.160004h10.640015v10.639984h-10.640015z"/><path d="m880.23999 431.799988h10.640015v10.640014h-10.640015z"/><path d="m880.23999 463.720001h10.640015v10.639984h-10.640015z"/><path d="m890.880005 304.119995h10.640015v10.640015h-10.640015z"/><path d="m890.880005 314.76001h10.640015v10.639984h-10.640015z"/><path d="m890.880005 346.679993h10.640015v10.640014h-10.640015z"/><path d="m890.880005 378.600006h10.640015v10.639984h-10.640015z"/><path d="m890.880005 389.23999h10.640015v10.640015h-10.640015z"/><path d="m890.880005 431.799988h10.640015v10.640014h-10.640015z"/><path d="m890.880005 442.440002h10.640015v10.640015h-10.640015z"/><path d="m890.880005 463.720001h10.640015v10.639984h-10.640015z"/><path d="m901.52002 219h10.639953v10.640015h-10.639953z"/><path d="m901.52002 229.640015h10.639953v10.639984h-10.639953z"/><path d="m901.52002 240.279999h10.639953v10.640014h-10.639953z"/><path d="m901.52002 250.920013h10.639953v10.639985h-10.639953z"/><path d="m901.52002 261.559998h10.639953v10.640014h-10.639953z"/><path d="m901.52002 272.200012h10.639953v10.639984h-10.639953z"/><path d="m901.52002 282.839996h10.639953v10.640015h-10.639953z"/><path d="m901.52002 325.399994h10.639953v10.640015h-10.639953z"/><path d="m901.52002 346.679993h10.639953v10.640014h-10.639953z"/><path d="m901.52002 367.959991h10.639953v10.640015h-10.639953z"/><path d="m901.52002 378.600006h10.639953v10.639984h-10.639953z"/><path d="m901.52002 389.23999h10.639953v10.640015h-10.639953z"/><path d="m901.52002 410.519989h10.639953v10.640015h-10.639953z"/><path d="m901.52002 431.799988h10.639953v10.640014h-10.639953z"/><path d="m901.52002 442.440002h10.639953v10.640015h-10.639953z"/><path d="m912.159973 219h10.640015v10.640015h-10.640015z"/><path d="m912.159973 282.839996h10.640015v10.640015h-10.640015z"/><path d="m912.159973 304.119995h10.640015v10.640015h-10.640015z"/><path d="m912.159973 314.76001h10.640015v10.639984h-10.640015z"/><path d="m912.159973 357.320007h10.640015v10.639984h-10.640015z"/><path d="m912.159973 367.959991h10.640015v10.640015h-10.640015z"/><path d="m912.159973 378.600006h10.640015v10.639984h-10.640015z"/><path d="m912.159973 389.23999h10.640015v10.640015h-10.640015z"/><path d="m912.159973 431.799988h10.640015v10.640014h-10.640015z"/><path d="m912.159973 463.720001h10.640015v10.639984h-10.640015z"/><path d="m912.159973 474.359985h10.640015v10.640015h-10.640015z"/><path d="m922.799988 219h10.640014v10.640015h-10.640014z"/><path d="m922.799988 240.279999h10.640014v10.640014h-10.640014z"/><path d="m922.799988 250.920013h10.640014v10.639985h-10.640014z"/><path d="m922.799988 261.559998h10.640014v10.640014h-10.640014z"/><path d="m922.799988 282.839996h10.640014v10.640015h-10.640014z"/><path d="m922.799988 325.399994h10.640014v10.640015h-10.640014z"/><path d="m922.799988 346.679993h10.640014v10.640014h-10.640014z"/><path d="m922.799988 367.959991h10.640014v10.640015h-10.640014z"/><path d="m922.799988 378.600006h10.640014v10.639984h-10.640014z"/><path d="m922.799988 389.23999h10.640014v10.640015h-10.640014z"/><path d="m922.799988 399.880005h10.640014v10.639984h-10.640014z"/><path d="m922.799988 410.519989h10.640014v10.640015h-10.640014z"/><path d="m922.799988 421.160004h10.640014v10.639984h-10.640014z"/><path d="m922.799988 431.799988h10.640014v10.640014h-10.640014z"/><path d="m922.799988 442.440002h10.640014v10.640015h-10.640014z"/><path d="m922.799988 463.720001h10.640014v10.639984h-10.640014z"/><path d="m922.799988 474.359985h10.640014v10.640015h-10.640014z"/><path d="m933.440002 219h10.640015v10.640015h-10.640015z"/><path d="m933.440002 240.279999h10.640015v10.640014h-10.640015z"/><path d="m933.440002 250.920013h10.640015v10.639985h-10.640015z"/><path d="m933.440002 261.559998h10.640015v10.640014h-10.640015z"/><path d="m933.440002 282.839996h10.640015v10.640015h-10.640015z"/><path d="m933.440002 304.119995h10.640015v10.640015h-10.640015z"/><path d="m933.440002 325.399994h10.640015v10.640015h-10.640015z"/><path d="m933.440002 357.320007h10.640015v10.639984h-10.640015z"/><path d="m933.440002 367.959991h10.640015v10.640015h-10.640015z"/><path d="m933.440002 399.880005h10.640015v10.639984h-10.640015z"/><path d="m933.440002 421.160004h10.640015v10.639984h-10.640015z"/><path d="m933.440002 442.440002h10.640015v10.640015h-10.640015z"/><path d="m933.440002 453.080017h10.640015v10.639984h-10.640015z"/><path d="m933.440002 463.720001h10.640015v10.639984h-10.640015z"/><path d="m933.440002 474.359985h10.640015v10.640015h-10.640015z"/><path d="m944.080017 219h10.639954v10.640015h-10.639954z"/><path d="m944.080017 240.279999h10.639954v10.640014h-10.639954z"/><path d="m944.080017 250.920013h10.639954v10.639985h-10.639954z"/><path d="m944.080017 261.559998h10.639954v10.640014h-10.639954z"/><path d="m944.080017 282.839996h10.639954v10.640015h-10.639954z"/><path d="m944.080017 346.679993h10.639954v10.640014h-10.639954z"/><path d="m944.080017 389.23999h10.639954v10.640015h-10.639954z"/><path d="m944.080017 410.519989h10.639954v10.640015h-10.639954z"/><path d="m944.080017 431.799988h10.639954v10.640014h-10.639954z"/><path d="m944.080017 442.440002h10.639954v10.640015h-10.639954z"/><path d="m944.080017 453.080017h10.639954v10.639984h-10.639954z"/><path d="m944.080017 474.359985h10.639954v10.640015h-10.639954z"/><path d="m954.719971 219h10.640014v10.640015h-10.640014z"/><path d="m954.719971 282.839996h10.640014v10.640015h-10.640014z"/><path d="m954.719971 304.119995h10.640014v10.640015h-10.640014z"/><path d="m954.719971 314.76001h10.640014v10.639984h-10.640014z"/><path d="m954.719971 325.399994h10.640014v10.640015h-10.640014z"/><path d="m954.719971 346.679993h10.640014v10.640014h-10.640014z"/><path d="m954.719971 357.320007h10.640014v10.639984h-10.640014z"/><path d="m954.719971 367.959991h10.640014v10.640015h-10.640014z"/><path d="m954.719971 410.519989h10.640014v10.640015h-10.640014z"/><path d="m954.719971 421.160004h10.640014v10.639984h-10.640014z"/><path d="m954.719971 442.440002h10.640014v10.640015h-10.640014z"/><path d="m954.719971 474.359985h10.640014v10.640015h-10.640014z"/><path d="m965.359985 219h10.640015v10.640015h-10.640015z"/><path d="m965.359985 229.640015h10.640015v10.639984h-10.640015z"/><path d="m965.359985 240.279999h10.640015v10.640014h-10.640015z"/><path d="m965.359985 250.920013h10.640015v10.639985h-10.640015z"/><path d="m965.359985 261.559998h10.640015v10.640014h-10.640015z"/><path d="m965.359985 272.200012h10.640015v10.639984h-10.640015z"/><path d="m965.359985 282.839996h10.640015v10.640015h-10.640015z"/><path d="m965.359985 325.399994h10.640015v10.640015h-10.640015z"/><path d="m965.359985 336.040009h10.640015v10.639984h-10.640015z"/><path d="m965.359985 346.679993h10.640015v10.640014h-10.640015z"/><path d="m965.359985 367.959991h10.640015v10.640015h-10.640015z"/><path d="m965.359985 378.600006h10.640015v10.639984h-10.640015z"/><path d="m965.359985 410.519989h10.640015v10.640015h-10.640015z"/><path d="m965.359985 421.160004h10.640015v10.639984h-10.640015z"/><path d="m965.359985 442.440002h10.640015v10.640015h-10.640015z"/><path d="m965.359985 453.080017h10.640015v10.639984h-10.640015z"/><path d="m965.359985 463.720001h10.640015v10.639984h-10.640015z"/><path d="m965.359985 474.359985h10.640015v10.640015h-10.640015z"/><g fill-rule="evenodd"><path d="m596 430c0 2.209137 1.790833 4 4 4s4-1.790863 4-4v-159c0-2.209137-1.790833-4-4-4s-4 1.790863-4 4z"/><path d="m221 478c0 3.313721 2.686295 6 6 6h256c3.313721 0 6-2.686279 6-6v-256c0-3.313721-2.686279-6-6-6h-256c-3.313705 0-6 2.686279-6 6zm111.686981-34h-9.158386l5.447937-31.17749h-36.495514l11.431732-65.14798h15.199036c.122681 0 .245422-.001648.368133-.003296l.001679-.00003.044342-.00058c.230133-.003021.460205-.005371.690033.003906.80307.032501 1.605621.096252 2.40329.194855.914917.113128 1.82727.258423 2.728027.454681.810791.176697 1.612396.398194 2.403259.649536.659333.209534 1.313446.440277 1.948578.714478.711182.307037 1.397583.669983 2.078522 1.039245.63977.346985 1.270508.712067 1.883636 1.104218.511017.326843 1.012848.669708 1.493927 1.039246.584778.449218 1.153534.921722 1.688782 1.428955.755951.71643 1.545197 1.535278 2.208374 2.338318.730866.884948 1.344757 1.752014 1.948609 2.728027.514617.831817 1.015991 1.711456 1.428985 2.598144.43454.933014.791077 1.877442 1.104187 2.857911.317932.995575.491486 1.882843.714478 3.052795.222717 1.168518.444488 3.338623.454681 4.157013.011322.911194-.069855 2.646637-.194855 3.962128-.161773 1.702301-.445282 3.1539-.714477 4.806549-1.742615 10.697876-5.715882 32.021881-5.715882 32.021881zm15.557099-63.748779c3.241455-17.799469 21.305175-32.132538 40.367981-32.132538 19.062835 0 32.113037 14.333069 29.128448 32.132538-3.006836 17.932037-21.123383 32.567138-40.444031 32.567138h-34.983215zm-74.404602-35.889283 2.338287-8.963531h29.274017l9.632904-48.000336h36.461884l5.36792-30.398071h9.158386l-5.326141 30.398071s.022644.052307-4.0271 22.798523c-.148529.834168-.61264 3.51474-1.039246 5.910736-.108123.607178-.479248 2.32486-.909362 3.572419-.370911 1.075927-.763245 2.318328-1.234101 3.377563-.372802.838715-.763977 1.565277-1.104187 2.208405-.532165 1.00595-.948181 1.742492-1.039276 1.883636-.861389 1.334808-1.75 2.632446-2.598114 3.702332-1.575043 1.986908-3.034668 3.405853-4.092041 4.351867-.986664.882721-2.03421 1.711884-3.052795 2.468201-1.100067.816833-2.450775 1.660553-3.63736 2.338318-1.054779.602478-2.192291 1.211456-3.312622 1.688782-1.120331.477325-2.223511.888-3.572418 1.299072-2.67569.815368-4.663635 1.385071-9.158386 1.364013-7.484498-.035095-18.316773 0-18.316773 0zm111.336303-1.15097c-16.754028-.048676-27.866241-13.582977-24.961944-29.452545l4.894622-26.744965 27.629822.080292c15.259522.044342 26.619507 11.756714 25.315003 26.832733-1.373535 15.874024-16.123444 29.333161-32.877503 29.284485z"/></g></g></svg>