<svg height="800" viewBox="0 0 800 800" width="800" xmlns="http://www.w3.org/2000/svg"><path d="m-57.142857-57.142883h914.28574v914.285766h-914.28574z" fill="none" visibility="hidden"/><path d="m628.571411 0c94.677429 0 171.428589 76.75116 171.428589 171.428589v457.142822c0 94.677429-76.75116 171.428589-171.428589 171.428589h-457.142837c-94.677376 0-171.428574-76.75116-171.428574-171.428589v-457.142822c0-94.677429 76.751198-171.428589 171.428574-171.428589zm-235.206634 170.710632c-15.779572 0-28.571412 12.791931-28.571412 28.571472l.01941 292.636078-92.666291-92.636108c-11.157867-11.157806-29.248291-11.157806-40.406128 0-11.157836 11.157867-11.157836 29.248291 0 40.406158l141.421357 141.421326c11.157837 11.157837 29.24823 11.157837 40.406128 0l141.421356-141.421326c11.157837-11.157867 11.157837-29.248291 0-40.406158-11.157837-11.157806-29.248291-11.157806-40.406067 0l-92.636139 92.676575-.010773-292.676545c0-15.779541-12.7919-28.571472-28.571441-28.571472z" fill-rule="evenodd"/></svg>