<?xml version="1.0" encoding="UTF-8"?>
<!-- Generated by Pixelmator Pro 3.7 -->
<svg width="750" height="750" viewBox="0 0 750 750" xmlns="http://www.w3.org/2000/svg">
    <path id="Path" fill="#000000" fill-rule="evenodd" stroke="none" d="M 750 225 C 750 191.849976 736.825012 160.049988 713.399963 136.599976 C 689.950012 113.174988 658.150024 100 625 100 C 491.950012 100 258.049988 100 125 100 C 91.849991 100 60.049995 113.174988 36.599998 136.599976 C 13.174999 160.049988 0 191.849976 0 225 C 0 312.149994 0 437.850006 0 525 C 0 558.150024 13.174999 589.949951 36.599998 613.399963 C 60.049995 636.824951 91.849991 650 125 650 C 258.049988 650 491.950012 650 625 650 C 658.150024 650 689.950012 636.824951 713.399963 613.399963 C 736.825012 589.949951 750 558.150024 750 525 C 750 437.850006 750 312.149994 750 225 Z M 86.099991 219.475037 C 86.099991 219.475037 214.724991 325.399994 295.399994 391.825012 C 341.625 429.899963 408.374969 429.825012 454.524994 391.650024 C 535.449951 324.725006 664.849976 217.674988 664.849976 217.674988 C 675.474976 208.875 676.975037 193.099976 668.174988 182.474976 C 659.399963 171.849976 643.625 170.349976 632.974976 179.150024 C 632.974976 179.150024 503.575012 286.174988 422.674988 353.125 C 394.975006 376.025024 354.924988 376.074982 327.174988 353.225006 C 327.174988 353.225006 117.875 180.875 117.875 180.875 C 107.225006 172.099976 91.474998 173.625 82.700005 184.275024 C 73.925003 194.924988 75.450005 210.700012 86.099991 219.475037 Z"/>
    <g id="Icon"/>
</svg>
