<?xml version="1.0" encoding="UTF-8"?>
<!-- Generated by Pixelmator Pro 3.7.1 -->
<svg width="800" height="800" viewBox="0 0 800 800" xmlns="http://www.w3.org/2000/svg">
    <g id="Interface--ExternalLink">
        <path id="Vector" fill="none" stroke="#000000" stroke-width="90.222221" stroke-linecap="round" stroke-linejoin="round" d="M 303.897919 90.111145 L 222.697906 90.111145 C 172.168518 90.111145 146.885071 90.111145 127.585663 99.944885 C 110.608971 108.594482 96.816704 122.38678 88.167107 139.363403 C 78.333344 158.662903 78.333344 183.946289 78.333344 234.475708 L 78.333344 577.320129 C 78.333344 627.84906 78.333344 653.102295 88.167107 672.400818 C 96.816704 689.37616 110.608971 703.193665 127.585663 711.841431 C 146.866119 721.666626 172.118896 721.666626 222.549469 721.666626 L 565.673096 721.666626 C 616.102844 721.666626 641.319946 721.666626 660.600464 711.841431 C 677.575867 703.193665 691.415894 689.362549 700.06366 672.387329 C 709.888855 653.106812 709.888855 627.880676 709.888855 577.450928 L 709.888855 496.111084 M 755 270.555542 L 755 45 M 755 45 L 529.444458 45 M 755 45 L 439.222229 360.777771"/>
    </g>
</svg>
