<?xml version="1.0" encoding="UTF-8"?>
<!-- Generated by Pixelmator Pro 3.7 -->
<svg width="800" height="800" viewBox="0 0 800 800" xmlns="http://www.w3.org/2000/svg">
    <path id="mask" fill="#000000" stroke="#000000" stroke-width="21.917809" d="M 635.616455 10.958923 L 164.38356 10.958923 C 79.64946 10.958923 10.958904 79.649475 10.958904 164.383545 L 10.958904 635.616455 C 10.958904 720.350525 79.64946 789.041077 164.38356 789.041077 L 635.616455 789.041077 C 720.350525 789.041077 789.041077 720.350525 789.041077 635.616455 L 789.041077 164.383545 C 789.041077 79.649475 720.350525 10.958923 635.616455 10.958923 Z M 588.236572 90.763794 C 644.145996 123.394409 688.411926 167.661865 721.045776 223.576355 C 753.65979 279.489075 769.983337 340.54126 770 406.732819 C 770 486.253906 746.791138 557.761292 700.389954 621.273315 C 653.983765 684.790283 594.031738 728.743286 520.530518 753.130493 C 511.975861 754.719971 505.723053 753.60321 501.763641 749.810242 C 497.799225 746.01062 495.818695 741.255615 495.818695 735.560303 L 495.818695 635.306885 C 495.818695 604.5802 487.583618 582.086914 471.116913 567.837097 C 489.171417 565.936401 505.403503 563.077148 519.819824 559.272522 C 534.229492 555.467896 549.125122 549.293274 564.490173 540.738647 C 579.851685 532.190735 592.683655 521.657227 602.987427 509.139923 C 613.279541 496.620911 621.669312 480.001038 628.160217 459.245361 C 634.642761 438.493011 637.901428 414.661621 637.901428 387.736298 C 637.901428 349.407043 625.380798 316.77478 600.356201 289.84613 C 612.082886 261.023438 610.813049 228.71405 596.56311 192.91626 C 587.688965 190.061951 574.850464 191.806213 558.060852 198.138855 C 541.281128 204.474915 526.700134 211.445129 514.352478 219.051025 L 496.296326 230.449951 C 466.827942 222.216614 436.412506 218.09906 405.053436 218.09906 C 373.694427 218.09906 343.285675 222.216614 313.818878 230.449951 C 308.74939 226.971558 302.020569 222.682556 293.622437 217.621338 C 285.224243 212.558594 272.00293 206.452148 253.945099 199.323914 C 235.890594 192.198975 222.266479 190.056946 213.079437 192.911255 C 199.139099 228.707458 198.032333 261.018494 209.755798 289.841125 C 184.729446 316.769775 172.213791 349.393738 172.213791 387.731293 C 172.213791 414.656647 175.460846 438.413055 181.953354 459.007324 C 188.44252 479.593323 196.760788 496.229797 206.8965 508.901947 C 217.030533 521.567383 229.780869 532.184082 245.150833 540.733704 C 260.512482 549.294922 275.403137 555.469543 289.812805 559.27417 C 304.230743 563.073792 320.46286 565.931396 338.517365 567.828735 C 325.850281 579.230957 318.087891 595.542969 315.236877 616.776367 C 308.581299 619.941895 301.453033 622.323486 293.855408 623.907959 C 286.249481 625.48407 277.222229 626.276245 266.770325 626.276245 C 256.31842 626.276245 245.94136 622.876038 235.649246 616.064026 C 225.348785 609.251953 216.566177 599.3526 209.276459 586.360962 C 203.256622 576.228577 195.575821 567.99353 186.232315 561.65918 C 176.88385 555.319763 169.04657 551.526794 162.71051 550.256897 L 153.210602 548.837219 C 146.554977 548.837219 141.968124 549.53125 139.430054 550.960876 C 136.891968 552.390564 136.103088 554.213013 137.055069 556.434814 C 138.005386 558.655029 139.428375 560.871948 141.329041 563.087158 C 143.231369 565.302307 145.288437 567.211304 147.505325 568.794067 L 150.832291 571.17572 C 157.800781 574.342896 164.689392 580.357727 171.501434 589.230225 C 178.313507 598.09436 183.29982 606.181335 186.466995 613.460999 L 191.218628 624.395569 C 195.337799 636.425293 202.30632 646.169861 212.122467 653.61438 C 221.943604 661.058838 232.553619 665.810486 243.960846 667.859253 C 255.363083 669.926331 266.375854 671.038086 276.984253 671.186218 C 287.597595 671.339355 296.388489 670.798401 303.356995 669.521851 L 314.286591 667.631226 C 314.286591 679.659302 314.363129 693.755981 314.526245 709.914917 C 314.684357 726.07373 314.76593 734.623352 314.76593 735.573669 C 314.76593 741.268982 312.708801 746.025574 308.5896 749.823547 C 304.472107 753.616577 298.139374 754.733276 289.584808 753.145569 C 216.093491 728.754944 156.141464 684.80365 109.73362 621.286682 C 63.320801 557.774597 40.120224 486.267212 40.120224 406.746094 C 40.120224 340.546234 56.435524 279.489075 89.064468 223.576355 C 121.69841 167.661865 165.962601 123.3927 221.877029 90.763794 C 277.783081 58.136536 338.848572 41.819519 405.056793 41.819519 C 471.273376 41.819519 532.318848 58.13147 588.236572 90.763794 Z"/>
</svg>
