<?xml version="1.0" encoding="UTF-8"?>
<!-- Generated by Pixelmator Pro 3.7 -->
<svg width="534" height="534" viewBox="0 0 534 534" xmlns="http://www.w3.org/2000/svg">
    <path id="Path" fill="#000000" stroke="none" d="M 491 0.332336 L 46 0.332336 C 40.264328 0.06366 34.531662 0.92865 29.130676 2.878357 C 23.72966 4.828003 18.766327 7.823669 14.524338 11.693665 C 10.282669 15.564026 6.845673 20.233032 4.410675 25.432983 C 1.975677 30.633301 0.589996 36.262634 0.333328 41.999023 L 0.333328 487.999969 C 0.669327 500.003357 5.588669 511.426666 14.080994 519.916626 C 22.573334 528.410034 33.994659 533.330017 46 533.666687 L 491 533.666687 C 502.670044 533.146667 513.67334 528.073303 521.649963 519.536621 C 529.626648 511 533.940002 499.679993 533.666687 487.999969 L 533.666687 41.999023 C 533.763306 36.415649 532.716675 30.872009 530.593384 25.707336 C 528.470032 20.542969 525.313293 15.866699 521.31665 11.965027 C 517.323364 8.06366 512.573364 5.019653 507.359985 3.019348 C 502.146667 1.018982 496.580017 0.104675 491 0.332336 Z M 167 445 L 89.333344 445 L 89.333344 207.333344 L 167 207.333344 L 167 445 Z M 130 171.332306 C 124.580322 171.521332 119.180008 170.587341 114.138657 168.589325 C 109.097 166.591309 104.522995 163.572327 100.70433 159.722015 C 96.885345 155.871674 93.903656 151.273315 91.947006 146.215637 C 89.990005 141.15802 89.100342 135.750305 89.333344 130.332336 C 89.093658 124.855652 90.001343 119.389648 91.998337 114.284668 C 93.995346 109.179321 97.037338 104.547974 100.929001 100.687683 C 104.821014 96.827026 109.476669 93.822632 114.597656 91.86731 C 119.719009 89.911682 125.192322 89.04834 130.666656 89.332336 C 136.086334 89.143677 141.486664 90.077332 146.528015 92.075317 C 151.569672 94.073364 156.143646 97.092346 159.962341 100.942688 C 163.781342 104.79303 166.763 109.391357 168.719666 114.448975 C 170.676666 119.506653 171.566315 124.914307 171.333344 130.332336 C 171.572998 135.809021 170.665314 141.274963 168.668335 146.380005 C 166.671326 151.485352 163.629333 156.116669 159.737671 159.97702 C 155.845673 163.837677 151.190002 166.84201 146.069 168.797333 C 140.947662 170.752991 135.474335 171.616333 130 171.332306 Z M 445 445 L 367 445 L 367 315 C 367 284 356 262.666656 328.333344 262.666656 C 319.73999 262.73999 311.376648 265.470001 304.396667 270.483337 C 297.41333 275.496674 292.15332 282.546661 289.333344 290.666656 C 287.166656 296.753326 286.259979 303.216675 286.666687 309.666656 L 286.666687 445 L 210 445 L 210 207.333344 L 286.666687 207.333344 L 286.666687 240.666656 C 293.483337 228.143341 303.626648 217.75 315.980011 210.630005 C 328.333344 203.513336 342.41333 199.94931 356.666656 200.332336 C 407 200.332336 445 233.666656 445 304.666656 L 445 445 Z"/>
</svg>
