<?xml version="1.0" encoding="UTF-8"?>
<!-- Generated by Pixelmator Pro 3.7 -->
<svg width="800" height="800" viewBox="0 0 800 800" xmlns="http://www.w3.org/2000/svg">
    <path id="Path" fill="#000000" stroke="none" d="M 768 0 L 32 0 C 14.3 0 0 14.299988 0 32 L 0 768 C 0 785.700012 14.3 800 32 800 L 768 800 C 785.700012 800 800 785.700012 800 768 L 800 32 C 800 14.299988 785.700012 0 768 0 Z M 256 632 C 256 636.400024 252.399994 640 248 640 L 168 640 C 163.600006 640 160 636.400024 160 632 L 160 168 C 160 163.599976 163.600006 160 168 160 L 248 160 C 252.399994 160 256 163.599976 256 168 L 256 632 Z M 448 352 C 448 356.399994 444.400024 360 440 360 L 360 360 C 355.600006 360 352 356.399994 352 352 L 352 168 C 352 163.599976 355.600006 160 360 160 L 440 160 C 444.400024 160 448 163.599976 448 168 L 448 352 Z M 640 424 C 640 428.400024 636.400024 432 632 432 L 552 432 C 547.599976 432 544 428.400024 544 424 L 544 168 C 544 163.599976 547.599976 160 552 160 L 632 160 C 636.400024 160 640 163.599976 640 168 L 640 424 Z"/>
</svg>
