<?xml version="1.0" encoding="UTF-8"?>
<!-- Generated by Pixelmator Pro 3.6.17 -->
<svg width="2225" height="2882" viewBox="0 0 2225 2882" xmlns="http://www.w3.org/2000/svg">
    <g id="Logo">
        <g id="Bottom-Left">
            <path id="Bottom-Left-Fill" fill="#000000" fill-rule="evenodd" stroke="none" d="M 287 2402 L 989 2402 C 989 2402 1050.171265 2073.70166 1077 1909 C 1081.144531 1883.556641 1085.509399 1861.208008 1088 1835 C 1089.924683 1814.746948 1091.174561 1788.028442 1091 1774 C 1090.843262 1761.400391 1087.428955 1727.989746 1084 1710 C 1080.566772 1691.987671 1077.894775 1678.327393 1073 1663 C 1068.179321 1647.904541 1062.690552 1633.364746 1056 1619 C 1049.641846 1605.348877 1041.923096 1591.806396 1034 1579 C 1024.703369 1563.973511 1015.251831 1550.624268 1004 1537 C 993.789429 1524.636475 981.638794 1512.029541 970 1501 C 961.759521 1493.190796 953.003174 1485.916016 944 1479 C 936.593628 1473.310669 928.867798 1468.031982 921 1463 C 911.560425 1456.962646 901.849854 1451.341797 892 1446 C 881.516724 1440.314697 870.948975 1434.726807 860 1430 C 850.221313 1425.778442 840.150757 1422.225952 830 1419 C 817.824219 1415.130615 805.48291 1411.720215 793 1409 C 779.132324 1405.978149 765.085815 1403.741699 751 1402 C 738.719727 1400.481567 726.363647 1399.500366 714 1399 C 708.338013 1398.770874 702.666626 1399 697 1399 C 465 1399 463 1399 463 1399 L 287 2402 Z"/>
            <path id="Bottom-Left-Line" fill="#000000" fill-rule="evenodd" stroke="none" d="M 765 2882 L 906 2882 L 989 2402 C 989 2402 1050.171265 2073.70166 1077 1909 C 1081.144531 1883.556641 1085.509399 1861.208008 1088 1835 C 1089.924683 1814.746948 1091.174561 1788.028442 1091 1774 C 1090.843262 1761.400391 1087.428955 1727.989746 1084 1710 C 1080.566772 1691.987671 1077.894775 1678.327393 1073 1663 C 1068.179321 1647.904541 1062.690552 1633.364746 1056 1619 C 1049.641846 1605.348877 1041.923096 1591.806396 1034 1579 C 1024.703369 1563.973511 1015.251831 1550.624268 1004 1537 C 993.789429 1524.636475 981.638794 1512.029541 970 1501 C 961.759521 1493.190796 953.003174 1485.916016 944 1479 C 936.593628 1473.310669 928.867798 1468.031982 921 1463 C 911.560425 1456.962646 901.849854 1451.341797 892 1446 C 881.516724 1440.314697 870.948975 1434.726807 860 1430 C 850.221313 1425.778442 840.150757 1422.225952 830 1419 C 817.824219 1415.130615 805.48291 1411.720215 793 1409 C 779.132324 1405.978149 765.085815 1403.741699 751 1402 C 738.719727 1400.481567 726.363647 1399.500366 714 1399 C 708.338013 1398.770874 702.666626 1399 697 1399 C 465 1399 463 1399 463 1399 L 440 1537 C 440 1537 431 1537 700 1537 C 704.713989 1537 722.698853 1538.028687 731 1539 C 740.360718 1540.095215 747.098999 1541.284302 760 1544 C 780.831909 1548.385132 793 1553 793 1553 L 836 1573 L 858 1588 C 858 1588 887.483398 1613.19458 901 1630 C 911.738159 1643.350952 929 1676 929 1676 C 929 1676 943.685181 1705.356567 949 1742 C 955.61145 1787.582886 949 1829 949 1829 L 765 2882 Z"/>
        </g>
        <g id="Top-Left">
            <path id="Top-Left-Line" fill="#000000" fill-rule="evenodd" stroke="none" d="M 0 1348 L 36 1210 L 905 1210 L 1101 1011 L 1279 3 L 1420 3 L 1338 471 C 1338 471 1338.348877 471.805664 1276 822 C 1273.713501 834.842773 1266.567749 876.111816 1260 913 C 1258.335693 922.3479 1252.621826 948.792969 1246 968 C 1240.289185 984.564697 1234.248901 1003.692383 1227 1020 C 1221.260132 1032.91272 1215.238159 1044.098389 1210 1054 C 1201.807129 1069.487183 1195.402466 1080.826904 1194 1083 C 1180.738037 1103.550049 1167.057129 1123.528442 1154 1140 C 1129.750977 1170.589966 1107.279175 1192.435669 1091 1207 C 1075.80957 1220.590454 1059.681763 1233.355713 1044 1245 C 1027.063843 1257.575806 1006.268677 1270.565063 988 1281 C 971.761108 1290.275391 954.248291 1299.651123 937 1307 C 919.751587 1314.348877 902.767578 1320.671143 882 1327 C 840.806152 1339.553589 810.199951 1348.324463 741 1348 C 625.771118 1347.459717 459 1348 459 1348"/>
            <path id="Top-Left-Fill" fill="#000000" fill-rule="evenodd" stroke="none" d="M 635 471 L 1338 471 C 1338 471 1338.348877 471.805664 1276 822 C 1273.713501 834.842773 1266.567749 876.111816 1260 913 C 1258.335693 922.3479 1252.621826 948.792969 1246 968 C 1240.289185 984.564697 1234.248901 1003.692383 1227 1020 C 1221.260132 1032.91272 1215.238159 1044.098389 1210 1054 C 1201.807129 1069.487183 1195.402466 1080.826904 1194 1083 C 1180.738037 1103.550049 1167.057129 1123.528442 1154 1140 C 1129.750977 1170.589966 1107.279175 1192.435669 1091 1207 C 1075.80957 1220.590454 1059.681763 1233.355713 1044 1245 C 1027.063843 1257.575806 1006.268677 1270.565063 988 1281 C 971.761108 1290.275391 954.248291 1299.651123 937 1307 C 919.751587 1314.348877 902.767578 1320.671143 882 1327 C 840.806152 1339.553589 810.199951 1348.324463 741 1348 C 625.771118 1347.459717 459 1348 459 1348"/>
        </g>
        <g id="Bottom-Right">
            <path id="Bottom-Right-Fill" fill="#000000" fill-rule="evenodd" stroke="none" d="M 1145.512573 1900.541504 C 1195.417358 1626.505859 1473.52124 1405.838013 1767.006958 1405.838013 C 2060.49292 1405.838013 2261.410156 1626.505859 2215.460205 1900.541504 C 2169.167969 2176.618164 1890.250977 2401.936035 1592.79541 2401.936035 L 1054.203735 2401.936035 L 1145.512573 1900.541504 Z"/>
        </g>
        <g id="Top-Right">
            <path id="Top-Right-Fill" fill="#000000" fill-rule="evenodd" stroke="none" d="M 1329.795898 876.836792 C 1285.082275 1121.160156 1456.162476 1329.530518 1714.102783 1330.280029 C 1972.043579 1331.029541 2199.12915 1123.816162 2220.275635 879.424316 C 2240.359619 647.318115 2065.464111 466.997559 1830.533081 466.314941 L 1405.151855 465.078857 L 1329.795898 876.836792 Z"/>
        </g>
    </g>
</svg>
